<svg width="347" height="41" viewBox="0 0 347 41" fill="none" xmlns="http://www.w3.org/2000/svg">
<path d="M55.25 9H65V40.5888H55.25V9Z" fill="#BCBBBB"/>
<path d="M9.75001 40.5888L9.75001 31.4766L55.25 31.4766V40.5888L9.75001 40.5888Z" fill="#BCBBBB"/>
<path d="M0 9H9.75V40.5888H0V9Z" fill="#BCBBBB"/>
<path d="M13.52 15.0462H18.6189V16.6928H15.8889V19.7984H17.9978V21.4595H15.8889V25.1284H18.6478V26.7462H13.52V15.0462Z" fill="#F39C12"/>
<path d="M20.0266 15.0462H22.5543L23.9988 22.4273L25.5299 15.0462H27.971L28.1877 26.7462H26.4543L26.2666 18.8017L24.7643 26.7462H23.291L21.7454 18.7584L21.5721 26.7462H19.8243L20.0266 15.0462Z" fill="#F39C12"/>
<path d="M29.9111 15.0462H33.6233C35.6455 15.0462 36.6566 16.168 36.6566 18.4117C36.6566 19.5962 36.3677 20.4388 35.79 20.9395C35.2122 21.4306 34.4081 21.6762 33.3777 21.6762H32.28V26.7462H29.9111V15.0462ZM33.1322 20.0006C33.6426 20.0006 33.9844 19.8802 34.1577 19.6395C34.3311 19.3988 34.4177 18.9751 34.4177 18.3684C34.4177 17.9736 34.3888 17.6654 34.3311 17.444C34.2733 17.2128 34.1481 17.0347 33.9555 16.9095C33.7726 16.7843 33.4933 16.7217 33.1177 16.7217H32.28V20.0006H33.1322Z" fill="#F39C12"/>
<path d="M38.9646 16.8084H37.159V15.0462H43.139V16.8084H41.3624V26.7462H38.9646V16.8084Z" fill="#F39C12"/>
<path d="M45.7315 22.1095L43.4492 15.0462H45.6881L46.9448 19.1628L48.1004 15.0462H50.2815L48.0281 22.1095V26.7462H45.7315V22.1095Z" fill="#F39C12"/>
<path d="M82.024 39.432C79.848 39.432 78.088 38.728 76.744 37.32C75.432 35.912 74.68 33.992 74.488 31.56L77.416 30.648C77.608 32.76 78.104 34.312 78.904 35.304C79.704 36.296 80.824 36.792 82.264 36.792C83.48 36.792 84.408 36.456 85.048 35.784C85.72 35.08 86.056 34.104 86.056 32.856C86.056 31.032 84.936 29.176 82.696 27.288L78.904 24.024C77.592 22.936 76.632 21.864 76.024 20.808C75.416 19.752 75.112 18.504 75.112 17.064C75.112 15.112 75.704 13.592 76.888 12.504C78.104 11.384 79.72 10.824 81.736 10.824C83.784 10.824 85.352 11.48 86.44 12.792C87.56 14.104 88.184 15.88 88.312 18.12L85.816 18.936C85.624 15.288 84.312 13.464 81.88 13.464C80.792 13.464 79.928 13.768 79.288 14.376C78.648 14.952 78.328 15.768 78.328 16.824C78.328 17.688 78.488 18.44 78.808 19.08C79.128 19.72 79.72 20.424 80.584 21.192L84.52 24.696C86.024 26.04 87.16 27.304 87.928 28.488C88.728 29.64 89.128 31.064 89.128 32.76C89.128 34.872 88.488 36.52 87.208 37.704C85.928 38.856 84.2 39.432 82.024 39.432Z" fill="black"/>
<path d="M99.7015 39.336C97.8135 39.336 96.5015 38.824 95.7655 37.8C95.0615 36.744 94.7095 35.224 94.7095 33.24V13.56H91.3015V11.256H94.7095V2.664H98.2135V11.256H102.821V13.56H98.2135V32.904C98.2135 34.312 98.3735 35.288 98.6935 35.832C99.0135 36.344 99.6695 36.6 100.661 36.6C101.269 36.6 101.941 36.52 102.677 36.36V39.048C101.685 39.24 100.693 39.336 99.7015 39.336Z" fill="black"/>
<path d="M111.379 39.432C109.715 39.432 108.371 38.84 107.347 37.656C106.323 36.472 105.811 35 105.811 33.24C105.811 31.416 106.163 29.912 106.867 28.728C107.603 27.544 108.723 26.488 110.227 25.56C111.731 24.632 113.987 23.496 116.995 22.152V20.184C116.995 18.456 116.883 17.112 116.659 16.152C116.467 15.192 116.115 14.504 115.603 14.088C115.123 13.672 114.435 13.464 113.539 13.464C110.947 13.464 109.651 15.048 109.651 18.216V19.176L106.195 19.128C106.227 16.28 106.835 14.184 108.019 12.84C109.203 11.496 111.107 10.824 113.731 10.824C116.163 10.824 117.891 11.56 118.915 13.032C119.971 14.504 120.499 16.824 120.499 19.992V33.48C120.499 34.376 120.515 35.4 120.547 36.552C120.611 37.704 120.675 38.52 120.739 39H117.619L117.091 35.16C116.675 36.376 115.955 37.4 114.931 38.232C113.939 39.032 112.755 39.432 111.379 39.432ZM112.483 36.456C113.443 36.456 114.307 36.136 115.075 35.496C115.875 34.824 116.515 34.04 116.995 33.144V24.504C114.819 25.656 113.235 26.552 112.243 27.192C111.283 27.832 110.547 28.552 110.035 29.352C109.555 30.12 109.315 31.128 109.315 32.376C109.315 33.752 109.603 34.776 110.179 35.448C110.787 36.12 111.555 36.456 112.483 36.456Z" fill="black"/>
<path d="M132.569 39.432C130.521 39.432 128.953 38.984 127.865 38.088C126.777 37.16 126.041 35.928 125.657 34.392C125.305 32.824 125.129 30.856 125.129 28.488V22.008C125.129 19.32 125.337 17.176 125.753 15.576C126.201 13.976 126.953 12.792 128.009 12.024C129.097 11.224 130.617 10.824 132.569 10.824C135.289 10.824 137.145 11.576 138.137 13.08C139.129 14.552 139.625 16.76 139.625 19.704V21.048H136.361V19.704C136.361 18.072 136.233 16.808 135.977 15.912C135.753 15.016 135.369 14.392 134.825 14.04C134.281 13.656 133.529 13.464 132.569 13.464C131.481 13.464 130.649 13.72 130.073 14.232C129.529 14.744 129.145 15.56 128.921 16.68C128.729 17.768 128.633 19.352 128.633 21.432V29.208C128.633 31.128 128.745 32.632 128.969 33.72C129.193 34.808 129.593 35.592 130.169 36.072C130.745 36.552 131.561 36.792 132.617 36.792C133.705 36.792 134.505 36.568 135.017 36.12C135.561 35.64 135.913 34.936 136.073 34.008C136.265 33.08 136.361 31.784 136.361 30.12V28.584H139.625V29.928C139.625 32.008 139.433 33.736 139.049 35.112C138.697 36.456 138.009 37.512 136.985 38.28C135.961 39.048 134.489 39.432 132.569 39.432Z" fill="black"/>
<path d="M144.361 0.119995H147.865V24.792L157.129 11.256H160.825L153.817 21.96L160.537 39H156.985L151.129 23.928L147.865 28.488V39H144.361V0.119995Z" fill="black"/>
<path d="M174.428 39.528C171.612 39.528 169.404 39.016 167.804 37.992C166.204 36.968 165.084 35.512 164.444 33.624C163.804 31.736 163.484 29.336 163.484 26.424V0.119995H170.396V27.24C170.396 29.48 170.652 31.208 171.164 32.424C171.708 33.64 172.796 34.248 174.428 34.248C176.092 34.248 177.18 33.64 177.692 32.424C178.236 31.208 178.508 29.48 178.508 27.24V0.119995H185.372V26.424C185.372 29.304 185.052 31.704 184.412 33.624C183.772 35.512 182.652 36.968 181.052 37.992C179.452 39.016 177.244 39.528 174.428 39.528Z" fill="black"/>
<path d="M190.527 11.256H197.055V13.992C199.263 11.88 201.503 10.824 203.775 10.824C205.343 10.824 206.511 11.4 207.279 12.552C208.079 13.704 208.479 15.16 208.479 16.92V39H201.951V18.216C201.951 17.32 201.807 16.664 201.519 16.248C201.263 15.832 200.783 15.624 200.079 15.624C199.311 15.624 198.303 16.072 197.055 16.968V39H190.527V11.256Z" fill="black"/>
<path d="M219.502 39.432C217.262 39.432 215.582 38.648 214.462 37.08C213.374 35.48 212.83 32.968 212.83 29.544V21.048C212.83 17.912 213.342 15.432 214.366 13.608C215.422 11.752 217.118 10.824 219.454 10.824C221.246 10.824 222.91 11.56 224.446 13.032V0.119995H231.022V39H224.446V37.032C222.91 38.632 221.262 39.432 219.502 39.432ZM221.854 34.92C222.686 34.92 223.55 34.616 224.446 34.008V16.2C223.614 15.592 222.75 15.288 221.854 15.288C220.19 15.288 219.358 16.744 219.358 19.656V30.024C219.358 31.592 219.534 32.808 219.886 33.672C220.238 34.504 220.894 34.92 221.854 34.92Z" fill="black"/>
<path d="M244.396 39.432C241.324 39.432 239.068 38.584 237.628 36.888C236.188 35.16 235.468 32.616 235.468 29.256V21C235.468 17.608 236.188 15.064 237.628 13.368C239.1 11.672 241.356 10.824 244.396 10.824C247.532 10.824 249.74 11.704 251.02 13.464C252.332 15.224 252.988 17.88 252.988 21.432V25.416H241.948V30.888C241.948 32.232 242.14 33.208 242.524 33.816C242.94 34.424 243.58 34.728 244.444 34.728C245.276 34.728 245.868 34.44 246.22 33.864C246.604 33.256 246.796 32.344 246.796 31.128V28.776H252.94V30.696C252.94 33.544 252.22 35.72 250.78 37.224C249.34 38.696 247.212 39.432 244.396 39.432ZM246.796 22.2V19.56C246.796 18.12 246.62 17.096 246.268 16.488C245.916 15.848 245.292 15.528 244.396 15.528C243.468 15.528 242.828 15.864 242.476 16.536C242.124 17.208 241.948 18.456 241.948 20.28V22.2H246.796Z" fill="black"/>
<path d="M257.562 11.256H264.09V15.528C265.018 13.896 265.962 12.728 266.922 12.024C267.882 11.288 268.954 10.92 270.138 10.92C270.554 10.92 270.89 10.952 271.146 11.016V17.784C270.122 17.4 269.226 17.208 268.458 17.208C266.73 17.208 265.274 18.104 264.09 19.896V39H257.562V11.256Z" fill="black"/>
<path d="M275.492 15.912H272.564V11.256H275.492V9.48C275.492 7.688 275.684 6.168 276.068 4.92C276.484 3.672 277.428 2.616 278.9 1.752C280.372 0.855997 282.58 0.407997 285.524 0.407997C288.148 0.407997 291.316 0.775997 295.028 1.512V39H288.5V5.112C287.636 5.016 286.868 4.968 286.196 4.968C284.916 4.968 283.972 5.16 283.364 5.544C282.788 5.896 282.42 6.376 282.26 6.984C282.1 7.592 282.02 8.424 282.02 9.48V11.256H285.62V15.912H282.02V39H275.492V15.912Z" fill="black"/>
<path d="M308.38 39.432C305.404 39.432 303.18 38.616 301.708 36.984C300.236 35.32 299.5 32.92 299.5 29.784V20.472C299.5 17.336 300.236 14.952 301.708 13.32C303.18 11.656 305.404 10.824 308.38 10.824C311.356 10.824 313.58 11.656 315.052 13.32C316.556 14.952 317.308 17.336 317.308 20.472V29.784C317.308 32.92 316.556 35.32 315.052 36.984C313.58 38.616 311.356 39.432 308.38 39.432ZM308.428 34.92C309.42 34.92 310.076 34.536 310.396 33.768C310.716 32.968 310.876 31.8 310.876 30.264V20.04C310.876 18.504 310.716 17.336 310.396 16.536C310.076 15.736 309.42 15.336 308.428 15.336C307.404 15.336 306.732 15.736 306.412 16.536C306.092 17.336 305.932 18.504 305.932 20.04V30.264C305.932 31.8 306.092 32.968 306.412 33.768C306.732 34.536 307.404 34.92 308.428 34.92Z" fill="black"/>
<path d="M320.246 11.256H325.67L328.118 29.304L331.046 11.256H335.846L338.582 29.4L341.174 11.256H346.358L341.99 39H336.47L333.398 21.48L330.182 39H324.518L320.246 11.256Z" fill="black"/>
</svg>
